<svg width="114" height="94" viewBox="0 0 114 94" fill="none" xmlns="http://www.w3.org/2000/svg">
<path d="M107.266 56.1103L94.0172 42.8621L98.5372 38.3421C99.6802 37.1991 101.135 36.6276 102.901 36.6276C104.668 36.6276 106.123 37.1991 107.266 38.3421L111.786 42.8621C112.929 44.0051 113.5 45.4598 113.5 47.2262C113.5 48.9926 112.929 50.4474 111.786 51.5903L107.266 56.1103ZM56.6103 93.5172V80.269L89.6531 47.2262L102.901 60.4745L69.8586 93.5172H56.6103ZM0.5 62.3448V49.8759H44.1414V62.3448H0.5ZM0.5 37.4069V24.9379H69.0793V37.4069H0.5ZM0.5 12.469V0H69.0793V12.469H0.5Z" fill="#999999"/>
</svg>
