<svg width="84" height="69" viewBox="0 0 84 69" fill="none" xmlns="http://www.w3.org/2000/svg">
<path d="M3.93457 4H80.0656M3.93457 34.4524H24.8706M3.93457 64.9048H24.8706" stroke="#53A7A5" stroke-width="7.6131" stroke-linecap="round"/>
<path d="M56.2745 55.3885C60.5652 55.3885 64.6801 53.684 67.714 50.6501C70.7479 47.6161 72.4524 43.5012 72.4524 39.2106C72.4524 34.92 70.7479 30.8051 67.714 27.7711C64.6801 24.7372 60.5652 23.0328 56.2745 23.0328C51.9839 23.0328 47.869 24.7372 44.8351 27.7711C41.8011 30.8051 40.0967 34.92 40.0967 39.2106C40.0967 43.5012 41.8011 47.6161 44.8351 50.6501C47.869 53.684 51.9839 55.3885 56.2745 55.3885Z" stroke="#53A7A5" stroke-width="7.6131"/>
<path d="M66.7432 51.5819L80.0661 65" stroke="#53A7A5" stroke-width="7.6131" stroke-linecap="round"/>
</svg>
